RedHatDisplay-Regular.ufo
<glyph name="ampersand" format="2">
  <advance width="653"/>
  <unicode hex="0026"/>
  <outline>
    <contour>
      <point x="646" y="40" type="line"/>
      <point x="608" y="69"/>
      <point x="565" y="104"/>
      <point x="522" y="141" type="curve"/>
      <point x="563" y="203"/>
      <point x="591" y="277"/>
      <point x="608" y="363" type="curve"/>
      <point x="540" y="374" type="line"/>
      <point x="527" y="304"/>
      <point x="505" y="239"/>
      <point x="472" y="186" type="curve"/>
      <point x="404" y="248"/>
      <point x="337" y="314"/>
      <point x="282" y="375" type="curve"/>
      <point x="332" y="405" type="line" smooth="yes"/>
      <point x="409" y="450"/>
      <point x="444" y="501"/>
      <point x="444" y="566" type="curve" smooth="yes"/>
      <point x="444" y="651"/>
      <point x="378" y="710"/>
      <point x="286" y="710" type="curve" smooth="yes"/>
      <point x="189" y="710"/>
      <point x="117" y="640"/>
      <point x="117" y="546" type="curve"/>
      <point x="117" y="492"/>
      <point x="134" y="448"/>
      <point x="181" y="389" type="curve"/>
      <point x="162" y="378" type="line" smooth="yes"/>
      <point x="64" y="324"/>
      <point x="26" y="269"/>
      <point x="26" y="188" type="curve"/>
      <point x="26" y="69"/>
      <point x="118" y="-10"/>
      <point x="257" y="-10" type="curve" smooth="yes"/>
      <point x="345" y="-10"/>
      <point x="423" y="23"/>
      <point x="481" y="84" type="curve"/>
      <point x="522" y="49"/>
      <point x="563" y="16"/>
      <point x="601" y="-13" type="curve"/>
    </contour>
    <contour>
      <point x="187" y="547" type="curve"/>
      <point x="187" y="608"/>
      <point x="228" y="650"/>
      <point x="284" y="650" type="curve" smooth="yes"/>
      <point x="334" y="650"/>
      <point x="374" y="613"/>
      <point x="374" y="564" type="curve" smooth="yes"/>
      <point x="374" y="519"/>
      <point x="349" y="483"/>
      <point x="300" y="454" type="curve" smooth="yes"/>
      <point x="243" y="421" type="line"/>
      <point x="202" y="472"/>
      <point x="187" y="506"/>
    </contour>
    <contour>
      <point x="96" y="190" type="curve"/>
      <point x="96" y="248"/>
      <point x="125" y="287"/>
      <point x="197" y="328" type="curve" smooth="yes"/>
      <point x="220" y="341" type="line"/>
      <point x="279" y="273"/>
      <point x="355" y="198"/>
      <point x="432" y="128" type="curve"/>
      <point x="387" y="79"/>
      <point x="327" y="53"/>
      <point x="261" y="53" type="curve" smooth="yes"/>
      <point x="162" y="53"/>
      <point x="96" y="107"/>
    </contour>
  </outline>
</glyph>
<glyph name="quotesingle" format="2">
  <advance width="191"/>
  <unicode hex="0027"/>
  <outline>
    <contour>
      <point x="69" y="497" type="line"/>
      <point x="122" y="497" type="line"/>
      <point x="133" y="701" type="line"/>
      <point x="58" y="701" type="line"/>
    </contour>
  </outline>
</glyph>
<glyph name="period" format="2">
  <advance width="198"/>
  <unicode hex="002E"/>
  <outline>
    <contour>
      <point x="99" y="96" type="curve" smooth="yes"/>
      <point x="71" y="96"/>
      <point x="48" y="73"/>
      <point x="48" y="45" type="curve" smooth="yes"/>
      <point x="48" y="17"/>
      <point x="71" y="-6"/>
      <point x="99" y="-6" type="curve" smooth="yes"/>
      <point x="127" y="-6"/>
      <point x="150" y="17"/>
      <point x="150" y="45" type="curve" smooth="yes"/>
      <point x="150" y="73"/>
      <point x="127" y="96"/>
    </contour>
  </outline>
</glyph>
<glyph name="zero" format="2">
  <advance width="661"/>
  <unicode hex="0030"/>
  <outline>
    <contour>
      <point x="330" y="-10" type="curve" smooth="yes"/>
      <point x="498" y="-10"/>
      <point x="616" y="138"/>
      <point x="616" y="350" type="curve"/>
      <point x="616" y="562"/>
      <point x="498" y="710"/>
      <point x="330" y="710" type="curve" smooth="yes"/>
      <point x="163" y="710"/>
      <point x="45" y="562"/>
      <point x="45" y="350" type="curve"/>
      <point x="45" y="138"/>
      <point x="162" y="-10"/>
    </contour>
    <contour>
      <point x="330" y="56" type="curve" smooth="yes"/>
      <point x="201" y="56"/>
      <point x="118" y="171"/>
      <point x="118" y="350" type="curve"/>
      <point x="118" y="529"/>
      <point x="201" y="645"/>
      <point x="330" y="645" type="curve" smooth="yes"/>
      <point x="460" y="645"/>
      <point x="543" y="529"/>
      <point x="543" y="350" type="curve"/>
      <point x="543" y="171"/>
      <point x="460" y="56"/>
    </contour>
  </outline>
</glyph>
<glyph name="two" format="2">
  <advance width="542"/>
  <unicode hex="0032"/>
  <outline>
    <contour>
      <point x="37" y="0" type="line"/>
      <point x="508" y="0" type="line"/>
      <point x="508" y="64" type="line"/>
      <point x="137" y="64" type="line"/>
      <point x="350" y="267" type="line" smooth="yes"/>
      <point x="465" y="376"/>
      <point x="495" y="428"/>
      <point x="495" y="511" type="curve"/>
      <point x="495" y="626"/>
      <point x="399" y="709"/>
      <point x="264" y="709" type="curve" smooth="yes"/>
      <point x="179" y="709"/>
      <point x="102" y="677"/>
      <point x="26" y="610" type="curve"/>
      <point x="69" y="559" type="line"/>
      <point x="141" y="621"/>
      <point x="194" y="645"/>
      <point x="263" y="645" type="curve" smooth="yes"/>
      <point x="355" y="645"/>
      <point x="423" y="587"/>
      <point x="423" y="507" type="curve"/>
      <point x="423" y="444"/>
      <point x="395" y="400"/>
      <point x="302" y="309" type="curve" smooth="yes"/>
      <point x="37" y="54" type="line"/>
    </contour>
  </outline>
</glyph>
<glyph name="three" format="2">
  <advance width="582"/>
  <unicode hex="0033"/>
  <outline>
    <contour>
      <point x="532" y="191" type="curve"/>
      <point x="532" y="271"/>
      <point x="473" y="335"/>
      <point x="384" y="360" type="curve"/>
      <point x="459" y="391"/>
      <point x="504" y="451"/>
      <point x="504" y="522" type="curve"/>
      <point x="504" y="631"/>
      <point x="407" y="711"/>
      <point x="275" y="711" type="curve"/>
      <point x="181" y="711"/>
      <point x="100" y="677"/>
      <point x="31" y="610" type="curve"/>
      <point x="80" y="561" type="line"/>
      <point x="143" y="622"/>
      <point x="198" y="646"/>
      <point x="273" y="646" type="curve"/>
      <point x="363" y="646"/>
      <point x="431" y="592"/>
      <point x="431" y="520" type="curve"/>
      <point x="431" y="442"/>
      <point x="365" y="383"/>
      <point x="276" y="383" type="curve" smooth="yes"/>
      <point x="221" y="383" type="line"/>
      <point x="221" y="322" type="line"/>
      <point x="280" y="322" type="line" smooth="yes"/>
      <point x="386" y="322"/>
      <point x="458" y="269"/>
      <point x="458" y="193" type="curve"/>
      <point x="458" y="111"/>
      <point x="384" y="54"/>
      <point x="278" y="54" type="curve"/>
      <point x="195" y="54"/>
      <point x="132" y="79"/>
      <point x="71" y="137" type="curve"/>
      <point x="22" y="89" type="line"/>
      <point x="90" y="24"/>
      <point x="178" y="-10"/>
      <point x="278" y="-10" type="curve"/>
      <point x="426" y="-10"/>
      <point x="532" y="75"/>
    </contour>
  </outline>
</glyph>
<glyph name="five" format="2">
  <advance width="568"/>
  <unicode hex="0035"/>
  <note>
Version created Sun Jan 27 17:40:50 2019
</note>
  <outline>
    <contour>
      <point x="65" y="355" type="line"/>
      <point x="108" y="340" type="line"/>
      <point x="160" y="361"/>
      <point x="213" y="372"/>
      <point x="265" y="372" type="curve" smooth="yes"/>
      <point x="378" y="372"/>
      <point x="455" y="308"/>
      <point x="455" y="216" type="curve" smooth="yes"/>
      <point x="455" y="119"/>
      <point x="382" y="53"/>
      <point x="275" y="53" type="curve" smooth="yes"/>
      <point x="195" y="53"/>
      <point x="135" y="78"/>
      <point x="71" y="134" type="curve"/>
      <point x="25" y="85" type="line"/>
      <point x="94" y="22"/>
      <point x="178" y="-10"/>
      <point x="274" y="-10" type="curve" smooth="yes"/>
      <point x="427" y="-10"/>
      <point x="529" y="82"/>
      <point x="529" y="219" type="curve" smooth="yes"/>
      <point x="529" y="345"/>
      <point x="427" y="433"/>
      <point x="278" y="433" type="curve" smooth="yes"/>
      <point x="227" y="433"/>
      <point x="179" y="424"/>
      <point x="133" y="407" type="curve"/>
      <point x="143" y="636" type="line"/>
      <point x="492" y="636" type="line"/>
      <point x="492" y="700" type="line"/>
      <point x="81" y="700" type="line"/>
    </contour>
  </outline>
</glyph>
<glyph name="six" format="2">
  <advance width="612"/>
  <unicode hex="0036"/>
  <outline>
    <contour>
      <point x="328" y="-9" type="curve"/>
      <point x="469" y="-9"/>
      <point x="573" y="87"/>
      <point x="573" y="219" type="curve" smooth="yes"/>
      <point x="573" y="346"/>
      <point x="471" y="438"/>
      <point x="331" y="438" type="curve"/>
      <point x="250" y="438"/>
      <point x="170" y="400"/>
      <point x="118" y="338" type="curve"/>
      <point x="123" y="530"/>
      <point x="216" y="644"/>
      <point x="367" y="644" type="curve" smooth="yes"/>
      <point x="413" y="644"/>
      <point x="460" y="631"/>
      <point x="502" y="607" type="curve"/>
      <point x="538" y="664" type="line"/>
      <point x="492" y="693"/>
      <point x="431" y="710"/>
      <point x="370" y="710" type="curve" smooth="yes"/>
      <point x="175" y="710"/>
      <point x="45" y="559"/>
      <point x="45" y="325" type="curve" smooth="yes"/>
      <point x="45" y="128"/>
      <point x="162" y="-9"/>
    </contour>
    <contour>
      <point x="318" y="377" type="curve"/>
      <point x="425" y="377"/>
      <point x="499" y="312"/>
      <point x="499" y="217" type="curve" smooth="yes"/>
      <point x="499" y="124"/>
      <point x="426" y="55"/>
      <point x="327" y="55" type="curve"/>
      <point x="217" y="55"/>
      <point x="137" y="142"/>
      <point x="121" y="273" type="curve"/>
      <point x="172" y="339"/>
      <point x="244" y="377"/>
    </contour>
  </outline>
</glyph>
<glyph name="seven" format="2">
  <advance width="555"/>
  <unicode hex="0037"/>
  <outline>
    <contour>
      <point x="92" y="0" type="line"/>
      <point x="176" y="0" type="line"/>
      <point x="540" y="644" type="line"/>
      <point x="540" y="700" type="line"/>
      <point x="15" y="700" type="line"/>
      <point x="15" y="635" type="line"/>
      <point x="457" y="635" type="line"/>
    </contour>
  </outline>
</glyph>
<glyph name="eight" format="2">
  <advance width="615"/>
  <unicode hex="0038"/>
  <note>
Version created Tue Sep 18 15:49:42 2018
</note>
  <outline>
    <contour>
      <point x="307" y="-10" type="curve"/>
      <point x="459" y="-10"/>
      <point x="569" y="74"/>
      <point x="569" y="189" type="curve" smooth="yes"/>
      <point x="569" y="271"/>
      <point x="508" y="340"/>
      <point x="418" y="368" type="curve"/>
      <point x="492" y="396"/>
      <point x="541" y="457"/>
      <point x="541" y="529" type="curve" smooth="yes"/>
      <point x="541" y="633"/>
      <point x="440" y="711"/>
      <point x="307" y="711" type="curve"/>
      <point x="174" y="711"/>
      <point x="74" y="633"/>
      <point x="74" y="529" type="curve" smooth="yes"/>
      <point x="74" y="457"/>
      <point x="123" y="396"/>
      <point x="197" y="368" type="curve"/>
      <point x="107" y="340"/>
      <point x="46" y="271"/>
      <point x="46" y="189" type="curve" smooth="yes"/>
      <point x="46" y="74"/>
      <point x="156" y="-10"/>
    </contour>
    <contour>
      <point x="307" y="400" type="curve"/>
      <point x="216" y="400"/>
      <point x="146" y="455"/>
      <point x="146" y="526" type="curve"/>
      <point x="146" y="597"/>
      <point x="216" y="653"/>
      <point x="307" y="653" type="curve"/>
      <point x="399" y="653"/>
      <point x="469" y="597"/>
      <point x="469" y="526" type="curve"/>
      <point x="469" y="455"/>
      <point x="398" y="400"/>
    </contour>
    <contour>
      <point x="307" y="50" type="curve"/>
      <point x="200" y="50"/>
      <point x="118" y="112"/>
      <point x="118" y="194" type="curve"/>
      <point x="118" y="274"/>
      <point x="200" y="336"/>
      <point x="307" y="336" type="curve"/>
      <point x="414" y="336"/>
      <point x="496" y="274"/>
      <point x="496" y="194" type="curve"/>
      <point x="496" y="112"/>
      <point x="414" y="50"/>
    </contour>
  </outline>
</glyph>
<glyph name="less" format="2">
  <advance width="505"/>
  <unicode hex="003C"/>
  <outline>
    <contour>
      <point x="391" y="103" type="line"/>
      <point x="429" y="151" type="line"/>
      <point x="167" y="350" type="line"/>
      <point x="428" y="547" type="line"/>
      <point x="391" y="594" type="line"/>
      <point x="73" y="349" type="line"/>
    </contour>
  </outline>
</glyph>
<glyph name="Y" format="2">
  <advance width="639"/>
  <unicode hex="0059"/>
  <anchor x="320" y="700" name="top"/>
  <outline>
    <contour>
      <point x="281" y="0" type="line"/>
      <point x="358" y="0" type="line"/>
      <point x="358" y="282" type="line"/>
      <point x="637" y="700" type="line"/>
      <point x="550" y="700" type="line"/>
      <point x="322" y="353" type="line"/>
      <point x="93" y="700" type="line"/>
      <point x="3" y="700" type="line"/>
      <point x="281" y="285" type="line"/>
    </contour>
  </outline>
</glyph>
<glyph name="grave" format="2">
  <advance width="519"/>
  <unicode hex="0060"/>
  <anchor x="302" y="501" name="_top"/>
  <outline>
    <contour>
      <point x="261" y="716" type="line"/>
      <point x="165" y="716" type="line"/>
      <point x="288" y="600" type="line"/>
      <point x="353" y="600" type="line"/>
    </contour>
  </outline>
</glyph>
<glyph name="j" format="2">
  <advance width="200"/>
  <unicode hex="006A"/>
  <outline>
    <contour>
      <point x="100" y="597" type="curve" smooth="yes"/>
      <point x="128" y="597"/>
      <point x="150" y="620"/>
      <point x="150" y="647" type="curve" smooth="yes"/>
      <point x="150" y="675"/>
      <point x="128" y="697"/>
      <point x="100" y="697" type="curve" smooth="yes"/>
      <point x="73" y="697"/>
      <point x="50" y="675"/>
      <point x="50" y="647" type="curve" smooth="yes"/>
      <point x="50" y="620"/>
      <point x="73" y="597"/>
    </contour>
    <contour>
      <point x="8" y="-208" type="curve"/>
      <point x="90" y="-208"/>
      <point x="137" y="-163"/>
      <point x="137" y="-82" type="curve" smooth="yes"/>
      <point x="137" y="501" type="line"/>
      <point x="63" y="501" type="line"/>
      <point x="63" y="-76" type="line" smooth="yes"/>
      <point x="63" y="-124"/>
      <point x="45" y="-144"/>
      <point x="-1" y="-144" type="curve"/>
      <point x="-16" y="-144"/>
      <point x="-26" y="-143"/>
      <point x="-38" y="-140" type="curve"/>
      <point x="-38" y="-202" type="line"/>
      <point x="-27" y="-205"/>
      <point x="-11" y="-208"/>
    </contour>
  </outline>
</glyph>
<glyph name="o" format="2">
  <advance width="591"/>
  <unicode hex="006F"/>
  <anchor x="296" y="501" name="top"/>
  <outline>
    <contour>
      <point x="40" y="251" type="curve" smooth="yes"/>
      <point x="40" y="104"/>
      <point x="153" y="-10"/>
      <point x="296" y="-10" type="curve" smooth="yes"/>
      <point x="438" y="-10"/>
      <point x="551" y="104"/>
      <point x="551" y="251" type="curve" smooth="yes"/>
      <point x="551" y="397"/>
      <point x="438" y="511"/>
      <point x="296" y="511" type="curve" smooth="yes"/>
      <point x="153" y="511"/>
      <point x="40" y="397"/>
    </contour>
    <contour>
      <point x="296" y="56" type="curve" smooth="yes"/>
      <point x="193" y="56"/>
      <point x="113" y="142"/>
      <point x="113" y="251" type="curve" smooth="yes"/>
      <point x="113" y="360"/>
      <point x="194" y="445"/>
      <point x="296" y="445" type="curve" smooth="yes"/>
      <point x="398" y="445"/>
      <point x="478" y="360"/>
      <point x="478" y="251" type="curve" smooth="yes"/>
      <point x="478" y="142"/>
      <point x="398" y="56"/>
    </contour>
  </outline>
</glyph>
<glyph name="s" format="2">
  <advance width="446"/>
  <unicode hex="0073"/>
  <note>
Version created Fri Aug  3 17:49:29 2018
</note>
  <anchor x="222" y="501" name="top"/>
  <anchor x="224" y="0" name="bottom"/>
  <outline>
    <contour>
      <point x="12" y="69" type="line"/>
      <point x="65" y="19"/>
      <point x="140" y="-9"/>
      <point x="223" y="-9" type="curve"/>
      <point x="338" y="-9"/>
      <point x="426" y="57"/>
      <point x="426" y="144" type="curve" smooth="yes"/>
      <point x="426" y="221"/>
      <point x="376" y="266"/>
      <point x="276" y="280" type="curve" smooth="yes"/>
      <point x="189" y="292" type="line" smooth="yes"/>
      <point x="123" y="302"/>
      <point x="96" y="323"/>
      <point x="96" y="366" type="curve"/>
      <point x="96" y="415"/>
      <point x="143" y="449"/>
      <point x="212" y="449" type="curve"/>
      <point x="267" y="449"/>
      <point x="318" y="431"/>
      <point x="374" y="393" type="curve"/>
      <point x="413" y="443" type="line"/>
      <point x="351" y="488"/>
      <point x="289" y="509"/>
      <point x="216" y="509" type="curve"/>
      <point x="106" y="509"/>
      <point x="28" y="447"/>
      <point x="28" y="363" type="curve" smooth="yes"/>
      <point x="28" y="287"/>
      <point x="76" y="243"/>
      <point x="176" y="228" type="curve" smooth="yes"/>
      <point x="263" y="216" type="line" smooth="yes"/>
      <point x="327" y="207"/>
      <point x="356" y="183"/>
      <point x="356" y="140" type="curve" smooth="yes"/>
      <point x="356" y="87"/>
      <point x="300" y="50"/>
      <point x="220" y="50" type="curve" smooth="yes"/>
      <point x="161" y="50"/>
      <point x="103" y="74"/>
      <point x="57" y="117" type="curve"/>
    </contour>
  </outline>
</glyph>
<glyph name="v" format="2">
  <advance width="513"/>
  <unicode hex="0076"/>
  <outline>
    <contour>
      <point x="222" y="0" type="line"/>
      <point x="292" y="0" type="line"/>
      <point x="508" y="501" type="line"/>
      <point x="429" y="501" type="line"/>
      <point x="258" y="96" type="line"/>
      <point x="87" y="501" type="line"/>
      <point x="5" y="501" type="line"/>
    </contour>
  </outline>
</glyph>
<glyph name="z" format="2">
  <advance width="463"/>
  <unicode hex="007A"/>
  <anchor x="228" y="501" name="top"/>
  <outline>
    <contour>
      <point x="31" y="0" type="line"/>
      <point x="426" y="0" type="line"/>
      <point x="426" y="66" type="line"/>
      <point x="120" y="66" type="line"/>
      <point x="423" y="444" type="line"/>
      <point x="423" y="501" type="line"/>
      <point x="34" y="501" type="line"/>
      <point x="34" y="435" type="line"/>
      <point x="333" y="435" type="line"/>
      <point x="31" y="58" type="line"/>
    </contour>
  </outline>
</glyph>
<glyph name="braceleft" format="2">
  <advance width="382"/>
  <unicode hex="007B"/>
  <outline>
    <contour>
      <point x="250" y="89" type="line" smooth="yes"/>
      <point x="279" y="160"/>
      <point x="245" y="227"/>
      <point x="171" y="249" type="curve"/>
      <point x="244" y="269"/>
      <point x="279" y="336"/>
      <point x="250" y="409" type="curve" smooth="yes"/>
      <point x="202" y="529" type="line" smooth="yes"/>
      <point x="173" y="598"/>
      <point x="200" y="650"/>
      <point x="265" y="650" type="curve" smooth="yes"/>
      <point x="286" y="650"/>
      <point x="304" y="647"/>
      <point x="327" y="639" type="curve"/>
      <point x="342" y="695" type="line"/>
      <point x="313" y="706"/>
      <point x="289" y="710"/>
      <point x="262" y="710" type="curve" smooth="yes"/>
      <point x="145" y="710"/>
      <point x="91" y="622"/>
      <point x="138" y="511" type="curve" smooth="yes"/>
      <point x="180" y="413" type="line" smooth="yes"/>
      <point x="212" y="339"/>
      <point x="180" y="279"/>
      <point x="107" y="279" type="curve" smooth="yes"/>
      <point x="28" y="279" type="line"/>
      <point x="28" y="218" type="line"/>
      <point x="107" y="218" type="line" smooth="yes"/>
      <point x="180" y="218"/>
      <point x="212" y="159"/>
      <point x="180" y="85" type="curve" smooth="yes"/>
      <point x="138" y="-14" type="line" smooth="yes"/>
      <point x="90" y="-124"/>
      <point x="145" y="-212"/>
      <point x="262" y="-212" type="curve" smooth="yes"/>
      <point x="289" y="-212"/>
      <point x="313" y="-208"/>
      <point x="342" y="-197" type="curve"/>
      <point x="327" y="-141" type="line"/>
      <point x="304" y="-149"/>
      <point x="286" y="-152"/>
      <point x="265" y="-152" type="curve" smooth="yes"/>
      <point x="200" y="-152"/>
      <point x="173" y="-100"/>
      <point x="202" y="-31" type="curve" smooth="yes"/>
    </contour>
  </outline>
</glyph>
<glyph name="yen" format="2">
  <advance width="641"/>
  <unicode hex="00A5"/>
  <outline>
    <contour>
      <point x="94" y="210" type="line"/>
      <point x="94" y="159" type="line"/>
      <point x="281" y="159" type="line"/>
      <point x="281" y="0" type="line"/>
      <point x="358" y="0" type="line"/>
      <point x="358" y="159" type="line"/>
      <point x="546" y="159" type="line"/>
      <point x="546" y="210" type="line"/>
      <point x="358" y="210" type="line"/>
      <point x="358" y="282" type="line"/>
      <point x="361" y="287" type="line"/>
      <point x="546" y="287" type="line"/>
      <point x="546" y="339" type="line"/>
      <point x="396" y="339" type="line"/>
      <point x="637" y="700" type="line"/>
      <point x="550" y="700" type="line"/>
      <point x="322" y="353" type="line"/>
      <point x="93" y="700" type="line"/>
      <point x="3" y="700" type="line"/>
      <point x="245" y="339" type="line"/>
      <point x="94" y="339" type="line"/>
      <point x="94" y="287" type="line"/>
      <point x="280" y="287" type="line"/>
      <point x="281" y="285" type="line"/>
      <point x="281" y="210" type="line"/>
    </contour>
  </outline>
</glyph>
<glyph name="uni00A6" format="2">
  <advance width="274"/>
  <unicode hex="00A6"/>
  <guideline x="137" y="247" angle="90.0" identifier="vqo1QWua4Z"/>
  <guideline x="137" y="247" angle="0" identifier="1av9a3dMxG"/>
  <outline>
    <contour>
      <point x="171" y="287" type="line"/>
      <point x="171" y="700" type="line"/>
      <point x="103" y="700" type="line"/>
      <point x="103" y="287" type="line"/>
    </contour>
    <contour>
      <point x="103" y="-206" type="line"/>
      <point x="171" y="-206" type="line"/>
      <point x="171" y="207" type="line"/>
      <point x="103" y="207" type="line"/>
    </contour>
  </outline>
</glyph>
<glyph name="ordfeminine" format="2">
  <advance width="408"/>
  <unicode hex="00AA"/>
  <outline>
    <contour>
      <point x="173" y="315" type="curve" smooth="yes"/>
      <point x="220" y="315"/>
      <point x="259" y="329"/>
      <point x="293" y="357" type="curve"/>
      <point x="293" y="322" type="line"/>
      <point x="354" y="322" type="line"/>
      <point x="354" y="574" type="line"/>
      <point x="354" y="659"/>
      <point x="300" y="707"/>
      <point x="203" y="707" type="curve" smooth="yes"/>
      <point x="156" y="707"/>
      <point x="110" y="695"/>
      <point x="55" y="669" type="curve"/>
      <point x="78" y="622" type="line"/>
      <point x="124" y="644"/>
      <point x="160" y="654"/>
      <point x="196" y="654" type="curve" smooth="yes"/>
      <point x="261" y="654"/>
      <point x="293" y="624"/>
      <point x="293" y="567" type="curve"/>
      <point x="293" y="521" type="line"/>
      <point x="261" y="536"/>
      <point x="224" y="544"/>
      <point x="186" y="544" type="curve" smooth="yes"/>
      <point x="92" y="544"/>
      <point x="33" y="500"/>
      <point x="33" y="429" type="curve" smooth="yes"/>
      <point x="33" y="361"/>
      <point x="90" y="315"/>
    </contour>
    <contour>
      <point x="93" y="431" type="curve" smooth="yes"/>
      <point x="93" y="473"/>
      <point x="130" y="500"/>
      <point x="188" y="500" type="curve" smooth="yes"/>
      <point x="230" y="500"/>
      <point x="263" y="492"/>
      <point x="293" y="473" type="curve"/>
      <point x="293" y="402" type="line"/>
      <point x="264" y="376"/>
      <point x="228" y="363"/>
      <point x="185" y="363" type="curve"/>
      <point x="130" y="363"/>
      <point x="93" y="390"/>
    </contour>
  </outline>
</glyph>
<glyph name="macron" format="2">
  <advance width="519"/>
  <unicode hex="00AF"/>
  <anchor x="260" y="501" name="_top"/>
  <outline>
    <contour>
      <point x="405" y="674" type="line"/>
      <point x="122" y="674" type="line"/>
      <point x="122" y="621" type="line"/>
      <point x="405" y="621" type="line"/>
    </contour>
  </outline>
</glyph>
<glyph name="degree" format="2">
  <advance width="388"/>
  <unicode hex="00B0"/>
  <outline>
    <contour>
      <point x="195" y="424" type="curve" smooth="yes"/>
      <point x="273" y="424"/>
      <point x="337" y="489"/>
      <point x="337" y="569" type="curve" smooth="yes"/>
      <point x="337" y="647"/>
      <point x="272" y="710"/>
      <point x="195" y="710" type="curve" smooth="yes"/>
      <point x="115" y="710"/>
      <point x="51" y="647"/>
      <point x="51" y="569" type="curve" smooth="yes"/>
      <point x="51" y="488"/>
      <point x="115" y="424"/>
    </contour>
    <contour>
      <point x="195" y="473" type="curve" smooth="yes"/>
      <point x="143" y="473"/>
      <point x="102" y="516"/>
      <point x="102" y="570" type="curve"/>
      <point x="102" y="620"/>
      <point x="144" y="661"/>
      <point x="195" y="661" type="curve" smooth="yes"/>
      <point x="244" y="661"/>
      <point x="286" y="619"/>
      <point x="286" y="570" type="curve" smooth="yes"/>
      <point x="286" y="517"/>
      <point x="244" y="473"/>
    </contour>
  </outline>
</glyph>
<glyph name="plusminus" format="2">
  <advance width="525"/>
  <unicode hex="00B1"/>
  <outline>
    <contour>
      <point x="294" y="173" type="line"/>
      <point x="294" y="350" type="line"/>
      <point x="470" y="350" type="line"/>
      <point x="470" y="412" type="line"/>
      <point x="294" y="412" type="line"/>
      <point x="294" y="585" type="line"/>
      <point x="231" y="585" type="line"/>
      <point x="231" y="412" type="line"/>
      <point x="55" y="412" type="line"/>
      <point x="55" y="350" type="line"/>
      <point x="231" y="350" type="line"/>
      <point x="231" y="173" type="line"/>
    </contour>
    <contour>
      <point x="470" y="60" type="line"/>
      <point x="55" y="60" type="line"/>
      <point x="55" y="-1" type="line"/>
      <point x="470" y="-1" type="line"/>
    </contour>
  </outline>
</glyph>
<glyph name="uni00B5" format="2">
  <advance width="549"/>
  <unicode hex="00B5"/>
  <outline>
    <contour>
      <point x="134" y="501" type="line"/>
      <point x="61" y="501" type="line"/>
      <point x="61" y="-205" type="line"/>
      <point x="134" y="-205" type="line"/>
      <point x="134" y="27" type="line"/>
      <point x="166" y="3"/>
      <point x="208" y="-10"/>
      <point x="255" y="-10" type="curve"/>
      <point x="320" y="-10"/>
      <point x="373" y="13"/>
      <point x="412" y="58" type="curve"/>
      <point x="412" y="0" type="line"/>
      <point x="486" y="0" type="line"/>
      <point x="486" y="501" type="line"/>
      <point x="412" y="501" type="line"/>
      <point x="412" y="133" type="line"/>
      <point x="382" y="83"/>
      <point x="334" y="55"/>
      <point x="274" y="55" type="curve" smooth="yes"/>
      <point x="188" y="55"/>
      <point x="134" y="110"/>
      <point x="134" y="199" type="curve"/>
    </contour>
  </outline>
</glyph>
<glyph name="cedilla" format="2">
  <advance width="519"/>
  <unicode hex="00B8"/>
  <anchor x="292" y="0" name="_bottom"/>
  <outline>
    <contour>
      <point x="393" y="-137" type="curve"/>
      <point x="393" y="-89"/>
      <point x="356" y="-58"/>
      <point x="298" y="-55" type="curve"/>
      <point x="313" y="0" type="line"/>
      <point x="270" y="0" type="line"/>
      <point x="244" y="-91" type="line"/>
      <point x="273" y="-91" type="line" smooth="yes"/>
      <point x="316" y="-91"/>
      <point x="342" y="-109"/>
      <point x="342" y="-138" type="curve"/>
      <point x="342" y="-167"/>
      <point x="318" y="-187"/>
      <point x="278" y="-187" type="curve"/>
      <point x="248" y="-187"/>
      <point x="220" y="-176"/>
      <point x="195" y="-155" type="curve"/>
      <point x="165" y="-187" type="line"/>
      <point x="194" y="-214"/>
      <point x="234" y="-228"/>
      <point x="278" y="-228" type="curve"/>
      <point x="345" y="-228"/>
      <point x="393" y="-190"/>
    </contour>
  </outline>
</glyph>
<glyph name="ordmasculine" format="2">
  <advance width="464"/>
  <unicode hex="00BA"/>
  <outline>
    <contour>
      <point x="36" y="510" type="curve" smooth="yes"/>
      <point x="36" y="401"/>
      <point x="122" y="314"/>
      <point x="230" y="314" type="curve" smooth="yes"/>
      <point x="339" y="314"/>
      <point x="424" y="401"/>
      <point x="424" y="510" type="curve" smooth="yes"/>
      <point x="424" y="620"/>
      <point x="339" y="707"/>
      <point x="230" y="707" type="curve" smooth="yes"/>
      <point x="122" y="707"/>
      <point x="36" y="620"/>
    </contour>
    <contour>
      <point x="364" y="510" type="curve" smooth="yes"/>
      <point x="364" y="431"/>
      <point x="306" y="369"/>
      <point x="230" y="369" type="curve" smooth="yes"/>
      <point x="156" y="369"/>
      <point x="98" y="431"/>
      <point x="98" y="510" type="curve" smooth="yes"/>
      <point x="98" y="590"/>
      <point x="156" y="652"/>
      <point x="230" y="652" type="curve" smooth="yes"/>
      <point x="306" y="652"/>
      <point x="364" y="590"/>
    </contour>
  </outline>
</glyph>
<glyph name="multiply" format="2">
  <advance width="544"/>
  <unicode hex="00D7"/>
  <outline>
    <contour>
      <point x="116" y="162" type="line"/>
      <point x="271" y="319" type="line"/>
      <point x="427" y="161" type="line"/>
      <point x="467" y="202" type="line"/>
      <point x="311" y="360" type="line"/>
      <point x="466" y="517" type="line"/>
      <point x="427" y="557" type="line"/>
      <point x="272" y="400" type="line"/>
      <point x="117" y="557" type="line"/>
      <point x="77" y="516" type="line"/>
      <point x="232" y="359" type="line"/>
      <point x="77" y="202" type="line"/>
    </contour>
  </outline>
</glyph>
<glyph name="divide" format="2">
  <advance width="525"/>
  <unicode hex="00F7"/>
  <outline>
    <contour>
      <point x="263" y="494" type="curve" smooth="yes"/>
      <point x="291" y="494"/>
      <point x="314" y="517"/>
      <point x="314" y="545" type="curve" smooth="yes"/>
      <point x="314" y="573"/>
      <point x="291" y="596"/>
      <point x="263" y="596" type="curve" smooth="yes"/>
      <point x="235" y="596"/>
      <point x="212" y="573"/>
      <point x="212" y="545" type="curve" smooth="yes"/>
      <point x="212" y="517"/>
      <point x="235" y="494"/>
    </contour>
    <contour>
      <point x="55" y="327" type="line"/>
      <point x="470" y="327" type="line"/>
      <point x="470" y="389" type="line"/>
      <point x="55" y="389" type="line"/>
    </contour>
    <contour>
      <point x="263" y="119" type="curve" smooth="yes"/>
      <point x="291" y="119"/>
      <point x="314" y="142"/>
      <point x="314" y="170" type="curve" smooth="yes"/>
      <point x="314" y="198"/>
      <point x="291" y="221"/>
      <point x="263" y="221" type="curve" smooth="yes"/>
      <point x="235" y="221"/>
      <point x="212" y="198"/>
      <point x="212" y="170" type="curve" smooth="yes"/>
      <point x="212" y="142"/>
      <point x="235" y="119"/>
    </contour>
  </outline>
</glyph>
<glyph name="hcircumflex" format="2">
  <advance width="549"/>
  <unicode hex="0125"/>
  <outline>
    <contour>
      <point x="183" y="795" type="line"/>
      <point x="244" y="795" type="line"/>
      <point x="140" y="916" type="line"/>
      <point x="60" y="916" type="line"/>
      <point x="-44" y="795" type="line"/>
      <point x="16" y="795" type="line"/>
      <point x="99" y="875" type="line"/>
    </contour>
    <contour>
      <point x="63" y="0" type="line"/>
      <point x="137" y="0" type="line"/>
      <point x="137" y="369" type="line"/>
      <point x="167" y="418"/>
      <point x="215" y="446"/>
      <point x="275" y="446" type="curve" smooth="yes"/>
      <point x="361" y="446"/>
      <point x="415" y="391"/>
      <point x="415" y="302" type="curve"/>
      <point x="415" y="0" type="line"/>
      <point x="488" y="0" type="line"/>
      <point x="488" y="317" type="line" smooth="yes"/>
      <point x="488" y="432"/>
      <point x="409" y="511"/>
      <point x="295" y="511" type="curve"/>
      <point x="230" y="511"/>
      <point x="176" y="488"/>
      <point x="137" y="442" type="curve"/>
      <point x="137" y="700" type="line"/>
      <point x="63" y="700" type="line"/>
    </contour>
  </outline>
</glyph>
<glyph name="Hbar" format="2">
  <advance width="727"/>
  <unicode hex="0126"/>
  <outline>
    <contour>
      <point x="83" y="0" type="line"/>
      <point x="160" y="0" type="line"/>
      <point x="160" y="318" type="line"/>
      <point x="567" y="318" type="line"/>
      <point x="567" y="0" type="line"/>
      <point x="644" y="0" type="line"/>
      <point x="644" y="518" type="line"/>
      <point x="712" y="518" type="line"/>
      <point x="712" y="584" type="line"/>
      <point x="644" y="584" type="line"/>
      <point x="644" y="700" type="line"/>
      <point x="567" y="700" type="line"/>
      <point x="567" y="584" type="line"/>
      <point x="160" y="584" type="line"/>
      <point x="160" y="700" type="line"/>
      <point x="83" y="700" type="line"/>
      <point x="83" y="584" type="line"/>
      <point x="15" y="584" type="line"/>
      <point x="15" y="518" type="line"/>
      <point x="83" y="518" type="line"/>
    </contour>
    <contour>
      <point x="160" y="387" type="line"/>
      <point x="160" y="518" type="line"/>
      <point x="567" y="518" type="line"/>
      <point x="567" y="387" type="line"/>
    </contour>
  </outline>
</glyph>
<glyph name="kgreenlandic" format="2">
  <advance width="494"/>
  <unicode hex="0138"/>
  <outline>
    <contour>
      <point x="63" y="0" type="line"/>
      <point x="137" y="0" type="line"/>
      <point x="137" y="240" type="line"/>
      <point x="401" y="0" type="line"/>
      <point x="502" y="0" type="line"/>
      <point x="214" y="263" type="line"/>
      <point x="489" y="501" type="line"/>
      <point x="399" y="501" type="line"/>
      <point x="137" y="275" type="line"/>
      <point x="137" y="501" type="line"/>
      <point x="63" y="501" type="line"/>
    </contour>
  </outline>
</glyph>
<glyph name="lacute" format="2">
  <advance width="200"/>
  <unicode hex="013A"/>
  <outline>
    <contour>
      <point x="140" y="915" type="line"/>
      <point x="46" y="799" type="line"/>
      <point x="111" y="799" type="line"/>
      <point x="235" y="915" type="line"/>
    </contour>
    <contour>
      <point x="63" y="0" type="line"/>
      <point x="137" y="0" type="line"/>
      <point x="137" y="700" type="line"/>
      <point x="63" y="700" type="line"/>
    </contour>
  </outline>
</glyph>
<glyph name="tbar" format="2">
  <advance width="371"/>
  <unicode hex="0167"/>
  <outline>
    <contour>
      <point x="125" y="112" type="line"/>
      <point x="125" y="33"/>
      <point x="173" y="-9"/>
      <point x="260" y="-9" type="curve"/>
      <point x="289" y="-9"/>
      <point x="322" y="-5"/>
      <point x="348" y="4" type="curve"/>
      <point x="348" y="69" type="line"/>
      <point x="323" y="59"/>
      <point x="303" y="56"/>
      <point x="275" y="56" type="curve"/>
      <point x="220" y="56"/>
      <point x="198" y="77"/>
      <point x="198" y="131" type="curve" smooth="yes"/>
      <point x="198" y="263" type="line"/>
      <point x="352" y="263" type="line"/>
      <point x="352" y="322" type="line"/>
      <point x="198" y="322" type="line"/>
      <point x="198" y="438" type="line"/>
      <point x="349" y="438" type="line"/>
      <point x="349" y="501" type="line"/>
      <point x="198" y="501" type="line"/>
      <point x="198" y="647" type="line"/>
      <point x="125" y="628" type="line"/>
      <point x="125" y="501" type="line"/>
      <point x="17" y="501" type="line"/>
      <point x="17" y="438" type="line"/>
      <point x="125" y="438" type="line"/>
      <point x="125" y="322" type="line"/>
      <point x="17" y="322" type="line"/>
      <point x="17" y="263" type="line"/>
      <point x="125" y="263" type="line"/>
    </contour>
  </outline>
</glyph>
<glyph name="dotlessj" format="2">
  <advance width="200"/>
  <unicode hex="0237"/>
  <anchor x="100" y="501" name="top"/>
  <outline>
    <contour>
      <point x="-38" y="-202" type="line"/>
      <point x="-24" y="-205"/>
      <point x="-8" y="-208"/>
      <point x="9" y="-208" type="curve"/>
      <point x="92" y="-208"/>
      <point x="137" y="-162"/>
      <point x="137" y="-83" type="curve" smooth="yes"/>
      <point x="137" y="501" type="line"/>
      <point x="63" y="501" type="line"/>
      <point x="63" y="-76" type="line" smooth="yes"/>
      <point x="63" y="-124"/>
      <point x="45" y="-144"/>
      <point x="0" y="-144" type="curve"/>
      <point x="-16" y="-144"/>
      <point x="-25" y="-143"/>
      <point x="-38" y="-140" type="curve"/>
    </contour>
  </outline>
</glyph>
<glyph name="caron" format="2">
  <advance width="519"/>
  <unicode hex="02C7"/>
  <anchor x="260" y="501" name="_top"/>
  <outline>
    <contour>
      <point x="178" y="718" type="line"/>
      <point x="116" y="718" type="line"/>
      <point x="220" y="598" type="line"/>
      <point x="300" y="598" type="line"/>
      <point x="404" y="718" type="line"/>
      <point x="342" y="718" type="line"/>
      <point x="260" y="639" type="line"/>
    </contour>
  </outline>
</glyph>
<glyph name="dotaccent" format="2">
  <advance width="267"/>
  <unicode hex="02D9"/>
  <anchor x="134" y="501" name="_top"/>
  <outline>
    <contour>
      <point x="134" y="602" type="curve" smooth="yes"/>
      <point x="162" y="602"/>
      <point x="184" y="624"/>
      <point x="184" y="651" type="curve" smooth="yes"/>
      <point x="184" y="678"/>
      <point x="162" y="700"/>
      <point x="134" y="700" type="curve" smooth="yes"/>
      <point x="107" y="700"/>
      <point x="85" y="678"/>
      <point x="85" y="651" type="curve" smooth="yes"/>
      <point x="85" y="624"/>
      <point x="107" y="602"/>
    </contour>
  </outline>
</glyph>
<glyph name="ogonek" format="2">
  <advance width="519"/>
  <unicode hex="02DB"/>
  <anchor x="318" y="0" name="_bottom"/>
  <outline>
    <contour>
      <point x="318" y="0" type="curve"/>
      <point x="284" y="16" type="line"/>
      <point x="197" y="-40"/>
      <point x="161" y="-83"/>
      <point x="161" y="-135" type="curve"/>
      <point x="161" y="-187"/>
      <point x="200" y="-221"/>
      <point x="259" y="-221" type="curve"/>
      <point x="287" y="-221"/>
      <point x="311" y="-214"/>
      <point x="333" y="-200" type="curve"/>
      <point x="318" y="-161" type="line"/>
      <point x="304" y="-171"/>
      <point x="287" y="-175"/>
      <point x="270" y="-175" type="curve"/>
      <point x="233" y="-175"/>
      <point x="212" y="-156"/>
      <point x="212" y="-123" type="curve"/>
      <point x="212" y="-84"/>
      <point x="245" y="-46"/>
    </contour>
  </outline>
</glyph>
<glyph name="tilde" format="2">
  <advance width="519"/>
  <unicode hex="02DC"/>
  <anchor x="256" y="501" name="_top"/>
  <outline>
    <contour>
      <point x="144" y="594" type="line"/>
      <point x="152" y="635"/>
      <point x="164" y="651"/>
      <point x="188" y="651" type="curve"/>
      <point x="230" y="651"/>
      <point x="280" y="596"/>
      <point x="333" y="596" type="curve" smooth="yes"/>
      <point x="381" y="596"/>
      <point x="413" y="629"/>
      <point x="427" y="696" type="curve"/>
      <point x="376" y="706" type="line"/>
      <point x="366" y="664"/>
      <point x="354" y="649"/>
      <point x="331" y="649" type="curve"/>
      <point x="289" y="649"/>
      <point x="240" y="704"/>
      <point x="186" y="704" type="curve" smooth="yes"/>
      <point x="137" y="704"/>
      <point x="107" y="671"/>
      <point x="92" y="604" type="curve"/>
    </contour>
  </outline>
</glyph>
<glyph name="hungarumlaut" format="2">
  <advance width="528"/>
  <unicode hex="02DD"/>
  <anchor x="247" y="501" name="_top"/>
  <outline>
    <contour>
      <point x="229" y="716" type="line"/>
      <point x="125" y="603" type="line"/>
      <point x="188" y="603" type="line"/>
      <point x="315" y="716" type="line"/>
    </contour>
    <contour>
      <point x="394" y="716" type="line"/>
      <point x="290" y="603" type="line"/>
      <point x="351" y="603" type="line"/>
      <point x="481" y="716" type="line"/>
    </contour>
  </outline>
</glyph>
<glyph name="dagger" format="2">
  <advance width="425"/>
  <unicode hex="2020"/>
  <outline>
    <contour>
      <point x="180" y="0" type="line"/>
      <point x="246" y="0" type="line"/>
      <point x="246" y="442" type="line"/>
      <point x="372" y="442" type="line"/>
      <point x="372" y="502" type="line"/>
      <point x="246" y="502" type="line"/>
      <point x="246" y="700" type="line"/>
      <point x="180" y="700" type="line"/>
      <point x="180" y="502" type="line"/>
      <point x="54" y="502" type="line"/>
      <point x="54" y="442" type="line"/>
      <point x="180" y="442" type="line"/>
    </contour>
  </outline>
</glyph>
<glyph name="bullet" format="2">
  <advance width="328"/>
  <unicode hex="2022"/>
  <outline>
    <contour>
      <point x="163" y="252" type="curve" smooth="yes"/>
      <point x="220" y="252"/>
      <point x="265" y="297"/>
      <point x="265" y="352" type="curve" smooth="yes"/>
      <point x="265" y="408"/>
      <point x="219" y="454"/>
      <point x="163" y="454" type="curve" smooth="yes"/>
      <point x="108" y="454"/>
      <point x="63" y="408"/>
      <point x="63" y="352" type="curve" smooth="yes"/>
      <point x="63" y="297"/>
      <point x="108" y="252"/>
    </contour>
  </outline>
</glyph>
<glyph name="notequal" format="2">
  <advance width="527"/>
  <unicode hex="2260"/>
  <outline>
    <contour>
      <point x="54" y="133" type="line"/>
      <point x="124" y="133" type="line"/>
      <point x="212" y="246" type="line"/>
      <point x="470" y="246" type="line"/>
      <point x="470" y="306" type="line"/>
      <point x="259" y="306" type="line"/>
      <point x="337" y="407" type="line"/>
      <point x="470" y="407" type="line"/>
      <point x="470" y="467" type="line"/>
      <point x="384" y="467" type="line"/>
      <point x="471" y="579" type="line"/>
      <point x="401" y="579" type="line"/>
      <point x="314" y="467" type="line"/>
      <point x="55" y="467" type="line"/>
      <point x="55" y="407" type="line"/>
      <point x="267" y="407" type="line"/>
      <point x="189" y="306" type="line"/>
      <point x="55" y="306" type="line"/>
      <point x="55" y="246" type="line"/>
      <point x="142" y="246" type="line"/>
    </contour>
  </outline>
</glyph>
<glyph name="caronSlovak" format="2">
  <advance width="465"/>
  <outline>
    <contour>
      <point x="203" y="714" type="line"/>
      <point x="198" y="508" type="line"/>
      <point x="253" y="508" type="line"/>
      <point x="281" y="714" type="line"/>
    </contour>
  </outline>
</glyph>
<glyph name="commaaccent" format="2">
  <advance width="229"/>
  <anchor x="109" y="0" name="_bottom"/>
  <outline>
    <contour>
      <point x="72" y="-85" type="line"/>
      <point x="31" y="-264" type="line"/>
      <point x="86" y="-264" type="line"/>
      <point x="146" y="-85" type="line"/>
    </contour>
  </outline>
</glyph>
<glyph name="cordinal" format="2">
  <advance width="407"/>
  <outline>
    <contour>
      <point x="231" y="371" type="curve" smooth="yes"/>
      <point x="156" y="371"/>
      <point x="98" y="432"/>
      <point x="98" y="510" type="curve" smooth="yes"/>
      <point x="98" y="589"/>
      <point x="156" y="650"/>
      <point x="231" y="650" type="curve" smooth="yes"/>
      <point x="270" y="650"/>
      <point x="310" y="633"/>
      <point x="340" y="602" type="curve"/>
      <point x="379" y="646" type="line"/>
      <point x="340" y="684"/>
      <point x="285" y="706"/>
      <point x="229" y="706" type="curve"/>
      <point x="121" y="706"/>
      <point x="36" y="620"/>
      <point x="36" y="510" type="curve" smooth="yes"/>
      <point x="36" y="401"/>
      <point x="121" y="315"/>
      <point x="229" y="315" type="curve" smooth="yes"/>
      <point x="285" y="315"/>
      <point x="337" y="337"/>
      <point x="377" y="376" type="curve"/>
      <point x="339" y="418" type="line"/>
      <point x="308" y="386"/>
      <point x="271" y="371"/>
    </contour>
  </outline>
</glyph>
<glyph name="g.alt" format="2">
  <advance width="530"/>
  <note>
Version created Sun Jan 13 16:53:00 2019
</note>
  <anchor x="265" y="501" name="top"/>
  <outline>
    <contour>
      <point x="55" y="323" type="curve" smooth="yes"/>
      <point x="55" y="255"/>
      <point x="94" y="197"/>
      <point x="154" y="165" type="curve"/>
      <point x="114" y="147"/>
      <point x="88" y="116"/>
      <point x="88" y="81" type="curve"/>
      <point x="88" y="52"/>
      <point x="101" y="28"/>
      <point x="126" y="12" type="curve"/>
      <point x="62" y="-12"/>
      <point x="26" y="-50"/>
      <point x="26" y="-94" type="curve" smooth="yes"/>
      <point x="26" y="-169"/>
      <point x="110" y="-213"/>
      <point x="256" y="-213" type="curve" smooth="yes"/>
      <point x="422" y="-213"/>
      <point x="528" y="-154"/>
      <point x="528" y="-61" type="curve" smooth="yes"/>
      <point x="528" y="3"/>
      <point x="481" y="40"/>
      <point x="398" y="45" type="curve" smooth="yes"/>
      <point x="217" y="54" type="line" smooth="yes"/>
      <point x="176" y="57"/>
      <point x="156" y="71"/>
      <point x="156" y="96" type="curve" smooth="yes"/>
      <point x="156" y="118"/>
      <point x="173" y="136"/>
      <point x="204" y="146" type="curve"/>
      <point x="222" y="141"/>
      <point x="242" y="139"/>
      <point x="262" y="139" type="curve" smooth="yes"/>
      <point x="379" y="139"/>
      <point x="469" y="220"/>
      <point x="469" y="323" type="curve" smooth="yes"/>
      <point x="469" y="368"/>
      <point x="452" y="409"/>
      <point x="424" y="441" type="curve"/>
      <point x="443" y="458"/>
      <point x="470" y="468"/>
      <point x="502" y="468" type="curve" smooth="yes"/>
      <point x="514" y="468"/>
      <point x="523" y="467"/>
      <point x="531" y="466" type="curve"/>
      <point x="528" y="530" type="line"/>
      <point x="522" y="531"/>
      <point x="515" y="532"/>
      <point x="505" y="532" type="curve" smooth="yes"/>
      <point x="460" y="532"/>
      <point x="418" y="507"/>
      <point x="396" y="467" type="curve"/>
      <point x="360" y="495"/>
      <point x="314" y="511"/>
      <point x="262" y="511" type="curve" smooth="yes"/>
      <point x="147" y="511"/>
      <point x="55" y="428"/>
    </contour>
    <contour>
      <point x="399" y="323" type="curve" smooth="yes"/>
      <point x="399" y="254"/>
      <point x="339" y="199"/>
      <point x="262" y="199" type="curve" smooth="yes"/>
      <point x="185" y="199"/>
      <point x="126" y="253"/>
      <point x="126" y="323" type="curve" smooth="yes"/>
      <point x="126" y="395"/>
      <point x="185" y="450"/>
      <point x="262" y="450" type="curve" smooth="yes"/>
      <point x="339" y="450"/>
      <point x="399" y="395"/>
    </contour>
    <contour>
      <point x="96" y="-85" type="curve"/>
      <point x="96" y="-51"/>
      <point x="128" y="-24"/>
      <point x="186" y="-10" type="curve"/>
      <point x="195" y="-11"/>
      <point x="205" y="-12"/>
      <point x="216" y="-13" type="curve" smooth="yes"/>
      <point x="384" y="-22" type="line" smooth="yes"/>
      <point x="430" y="-24"/>
      <point x="454" y="-41"/>
      <point x="454" y="-71" type="curve" smooth="yes"/>
      <point x="454" y="-124"/>
      <point x="375" y="-158"/>
      <point x="251" y="-158" type="curve" smooth="yes"/>
      <point x="154" y="-158"/>
      <point x="96" y="-131"/>
    </contour>
  </outline>
</glyph>
<glyph name="reversequotedblleft" format="2">
  <advance width="333"/>
  <outline>
    <contour>
      <point x="110" y="719" type="line"/>
      <point x="30" y="719" type="line"/>
      <point x="109" y="508" type="line"/>
      <point x="167" y="508" type="line"/>
    </contour>
    <contour>
      <point x="245" y="719" type="line"/>
      <point x="165" y="719" type="line"/>
      <point x="245" y="508" type="line"/>
      <point x="303" y="508" type="line"/>
    </contour>
  </outline>
</glyph>
<glyph name="reversequoteleft" format="2">
  <advance width="198"/>
  <outline>
    <contour>
      <point x="110" y="719" type="line"/>
      <point x="30" y="719" type="line"/>
      <point x="109" y="508" type="line"/>
      <point x="167" y="508" type="line"/>
    </contour>
  </outline>
</glyph>
